<svg width="25" height="24" viewBox="0 0 25 24" fill="none" xmlns="http://www.w3.org/2000/svg">
<path d="M5.10088 19.071C6.88314 20.852 9.27473 21.8906 11.7929 21.977C11.3299 19.204 12.1579 16.256 14.2929 14.121C16.4289 11.986 19.3759 11.158 22.1489 11.621C22.0569 9.188 21.0959 6.782 19.2429 4.929C17.3899 3.076 14.9829 2.115 12.5509 2.023C13.0139 4.796 12.1859 7.744 10.0509 9.879C7.91488 12.014 4.96788 12.842 2.19488 12.379C2.28031 14.8974 3.31901 17.2893 5.10088 19.071Z" fill="#BBB8B9"/>
<path d="M15.7069 15.535C14.8933 16.3497 14.2933 17.3526 13.9599 18.4546C13.6266 19.5567 13.5702 20.724 13.7959 21.853C15.8589 21.5215 17.7647 20.5478 19.2422 19.0703C20.7196 17.5929 21.6934 15.687 22.0249 13.624C20.8958 13.3984 19.7285 13.4547 18.6265 13.7881C17.5244 14.1214 16.5216 14.7214 15.7069 15.535ZM8.63687 8.465C9.45044 7.65028 10.0505 6.64745 10.3838 5.54539C10.7172 4.44333 10.7735 3.27605 10.5479 2.147C8.4847 2.47827 6.57861 3.45195 5.10096 4.92943C3.6233 6.40691 2.64939 8.31287 2.31787 10.376C3.44707 10.6018 4.61454 10.5455 5.7168 10.2122C6.81905 9.87885 7.82204 9.27872 8.63687 8.465Z" fill="#BBB8B9"/>
</svg>
