<svg width="20" height="21" viewBox="0 0 20 21" fill="none" xmlns="http://www.w3.org/2000/svg">
<path d="M19.2461 7.00781C19.3711 7.34766 19.2656 7.72656 18.9961 7.96875L17.3047 9.50781C17.3477 9.83203 17.3711 10.1641 17.3711 10.5C17.3711 10.8359 17.3477 11.168 17.3047 11.4922L18.9961 13.0312C19.2656 13.2734 19.3711 13.6523 19.2461 13.9922C19.0742 14.457 18.8672 14.9023 18.6289 15.332L18.4453 15.6484C18.1875 16.0781 17.8984 16.4844 17.582 16.8672C17.3516 17.1484 16.9687 17.2422 16.625 17.1328L14.4492 16.4414C13.9258 16.8438 13.3477 17.1797 12.7305 17.4336L12.2422 19.6641C12.1641 20.0195 11.8906 20.3008 11.5312 20.3594C10.9922 20.4492 10.4375 20.4961 9.87109 20.4961C9.30468 20.4961 8.74999 20.4492 8.21093 20.3594C7.85156 20.3008 7.57812 20.0195 7.49999 19.6641L7.01171 17.4336C6.39453 17.1797 5.8164 16.8438 5.29296 16.4414L3.12109 17.1367C2.77734 17.2461 2.39453 17.1484 2.16406 16.8711C1.84765 16.4883 1.55859 16.082 1.30078 15.6523L1.11718 15.3359C0.878901 14.9062 0.67187 14.4609 0.499995 13.9961C0.374995 13.6562 0.480464 13.2773 0.749995 13.0352L2.4414 11.4961C2.39843 11.168 2.37499 10.8359 2.37499 10.5C2.37499 10.1641 2.39843 9.83203 2.4414 9.50781L0.749995 7.96875C0.480464 7.72656 0.374995 7.34766 0.499995 7.00781C0.67187 6.54297 0.878901 6.09766 1.11718 5.66797L1.30078 5.35156C1.55859 4.92188 1.84765 4.51562 2.16406 4.13281C2.39453 3.85156 2.77734 3.75781 3.12109 3.86719L5.29687 4.55859C5.82031 4.15625 6.39843 3.82031 7.01562 3.56641L7.5039 1.33594C7.58203 0.980469 7.85546 0.699219 8.21484 0.640625C8.7539 0.546875 9.30859 0.5 9.87499 0.5C10.4414 0.5 10.9961 0.546875 11.5352 0.636719C11.8945 0.695312 12.168 0.976562 12.2461 1.33203L12.7344 3.5625C13.3516 3.81641 13.9297 4.15234 14.4531 4.55469L16.6289 3.86328C16.9727 3.75391 17.3555 3.85156 17.5859 4.12891C17.9023 4.51172 18.1914 4.91797 18.4492 5.34766L18.6328 5.66406C18.8711 6.09375 19.0781 6.53906 19.25 7.00391L19.2461 7.00781ZM9.87499 13.625C10.7038 13.625 11.4987 13.2958 12.0847 12.7097C12.6708 12.1237 13 11.3288 13 10.5C13 9.6712 12.6708 8.87634 12.0847 8.29029C11.4987 7.70424 10.7038 7.375 9.87499 7.375C9.04619 7.375 8.25134 7.70424 7.66529 8.29029C7.07923 8.87634 6.74999 9.6712 6.74999 10.5C6.74999 11.3288 7.07923 12.1237 7.66529 12.7097C8.25134 13.2958 9.04619 13.625 9.87499 13.625Z" fill="#BBB8B9"/>
</svg>
