<svg width="25" height="24" viewBox="0 0 25 24" fill="none" xmlns="http://www.w3.org/2000/svg">
<path d="M8.41659 8.50001C6.40536 8.50001 4.47651 9.29897 3.05436 10.7211C1.63221 12.1433 0.833252 14.0721 0.833252 16.0833C0.833252 17.0792 1.0294 18.0653 1.4105 18.9854C1.7916 19.9054 2.35018 20.7414 3.05436 21.4456C4.47651 22.8677 6.40536 23.6667 8.41659 23.6667C9.41244 23.6667 10.3985 23.4705 11.3186 23.0894C12.2387 22.7083 13.0746 22.1497 13.7788 21.4456C14.483 20.7414 15.0416 19.9054 15.4227 18.9854C15.8038 18.0653 15.9999 17.0792 15.9999 16.0833V14.2283L24.1666 12V8.50001H11.3333V10.8333H8.99992V8.50001H8.41659ZM11.3333 0.333344V6.16668H8.99992V0.333344H11.3333ZM5.90825 6.49334C5.12659 6.68001 4.37992 6.96001 3.66825 7.33334L0.996585 3.69334L2.88659 2.31668L5.90825 6.49334ZM19.3366 3.69334L17.5399 6.16668H14.6583L17.4466 2.31668L19.3366 3.69334Z" fill="white"/>
</svg>
