<svg width="19" height="21" viewBox="0 0 19 21" fill="none" xmlns="http://www.w3.org/2000/svg">
<path d="M2.1875 0.5C2.87891 0.5 3.4375 1.05859 3.4375 1.75V2.375L6.13281 1.70312C7.62109 1.33203 9.19141 1.50391 10.5664 2.19141C12.375 3.09766 14.5039 3.09766 16.3125 2.19141L16.6875 2.00391C17.4922 1.59766 18.4375 2.18359 18.4375 3.08203V14.0078C18.4375 14.5273 18.1133 14.9961 17.625 15.1797L16.2695 15.6875C14.4648 16.3633 12.457 16.2578 10.7344 15.3984C9.25391 14.6562 7.55859 14.4727 5.94922 14.875L3.4375 15.5V19.25C3.4375 19.9414 2.87891 20.5 2.1875 20.5C1.49609 20.5 0.9375 19.9414 0.9375 19.25V16.125V13.5469V3V1.75C0.9375 1.05859 1.49609 0.5 2.1875 0.5ZM3.4375 7.80859L5.9375 7.26562V9.82422L3.4375 10.3672V12.9219L5.34375 12.4453C5.54297 12.3945 5.73828 12.3516 5.9375 12.3164V9.82422L7.45703 9.49609C7.78125 9.42578 8.10938 9.39844 8.4375 9.41406V6.91406C8.96875 6.92969 9.5 7.01563 10.0156 7.16406L10.9375 7.43359V10.0391L9.30859 9.55859C9.02344 9.47656 8.73047 9.42578 8.4375 9.41016V12.1992C9.28906 12.2734 10.1289 12.4609 10.9375 12.7617V10.0391L11.8242 10.3008C12.3516 10.457 12.8906 10.5508 13.4375 10.5898V8.07812C13.1328 8.04688 12.8281 7.98828 12.5312 7.90234L10.9375 7.43359V5.01172C10.4297 4.86328 9.92969 4.66797 9.44531 4.42578C9.125 4.26562 8.78516 4.15234 8.4375 4.08203V6.91016C7.92969 6.89453 7.42188 6.94141 6.92578 7.05078L5.9375 7.26562V4.32812L3.4375 4.95312V7.80859ZM13.4375 13.6133C14.0938 13.6719 14.7617 13.5859 15.3906 13.3477L15.9375 13.1445V10.3398L15.6289 10.4102C14.9102 10.5781 14.1719 10.6328 13.4375 10.5859V13.6094V13.6133ZM15.9375 7.77734V5.00781C15.1211 5.24609 14.2812 5.36328 13.4375 5.36328V8.07812C13.9805 8.13281 14.5313 8.09766 15.0664 7.97656L15.9375 7.77344V7.77734Z" fill="#FAFAFA"/>
</svg>
