<svg width="13" height="15" viewBox="0 0 13 15" fill="none" xmlns="http://www.w3.org/2000/svg">
<path d="M1.92188 0C0.886719 0 0.046875 0.839844 0.046875 1.875V13.125C0.046875 14.1602 0.886719 15 1.92188 15H3.17188C4.20703 15 5.04688 14.1602 5.04688 13.125V1.875C5.04688 0.839844 4.20703 0 3.17188 0H1.92188ZM9.42188 0C8.38672 0 7.54688 0.839844 7.54688 1.875V13.125C7.54688 14.1602 8.38672 15 9.42188 15H10.6719C11.707 15 12.5469 14.1602 12.5469 13.125V1.875C12.5469 0.839844 11.707 0 10.6719 0H9.42188Z" fill="#FAFAFA"/>
</svg>
