<svg width="58" height="71" viewBox="0 0 58 71" fill="none" xmlns="http://www.w3.org/2000/svg">
<path d="M48.5873 2.47484C40.1873 -2.37016 29.4698 0.517337 24.6023 8.90734L21.4273 14.4098C19.8797 17.0917 19.0691 20.1352 19.0779 23.2316C19.0867 26.3279 19.9145 29.3668 21.4773 32.0398L20.3998 40.2473C19.9498 43.5973 18.8748 46.8473 17.1748 49.7723L15.0498 53.4473L15.0523 53.4498L8.44984 64.9498C8.00421 65.7542 7.89174 66.7011 8.13659 67.5875C8.38145 68.4738 8.9641 69.2288 9.75943 69.6902C10.5548 70.1517 11.4993 70.2829 12.3903 70.0557C13.2813 69.8284 14.0477 69.2609 14.5248 68.4748L21.1498 56.9748L23.2748 53.2998C24.9748 50.3748 27.2248 47.7998 29.8998 45.7498L36.4398 40.7473C39.5556 40.7783 42.6237 39.9816 45.3307 38.4386C48.0376 36.8956 50.2865 34.6616 51.8473 31.9648L55.0223 26.4598L55.0273 26.4523C59.8349 18.0398 56.9898 7.31984 48.5873 2.47484ZM39.7648 36.6323C38.2972 36.9774 36.7829 37.0788 35.2823 36.9323L35.3823 36.9398L33.0749 32.5723L37.4998 32.4223L39.7298 36.6398L39.7648 36.6323ZM44.9273 34.2273C43.8498 35.0373 42.6648 35.6773 41.4174 36.1373L39.4248 32.3723L43.8498 32.2223L44.9149 34.2373L44.9273 34.2273ZM47.2774 31.9898C46.9574 32.3748 46.6198 32.739 46.2648 33.0823L45.7748 32.1473L47.1799 32.1048L47.2774 31.9898ZM48.6023 30.0848L48.4573 30.3298L44.8998 30.4473L42.8248 26.5473L47.2499 26.3973L48.9223 29.5298L48.6023 30.0848ZM50.8123 26.2573L49.9473 27.7573L49.1748 26.3223L50.8123 26.2573ZM52.3423 23.4848C52.1685 23.8608 51.9792 24.2295 51.7748 24.5898L51.8223 24.5048L48.2748 24.6223L46.1999 20.6973L50.6248 20.5473L52.2748 23.6323L52.3423 23.4848ZM53.3498 20.3773C53.2748 20.754 53.1832 21.129 53.0748 21.5023L52.4998 20.4723L53.3349 20.4523L53.3498 20.3773ZM53.3023 14.7773C53.5773 16.0673 53.6723 17.3973 53.5748 18.7273L51.5998 18.7973L49.5248 14.8973L53.3023 14.7773ZM50.6548 9.12734C51.5973 10.3273 52.3248 11.6623 52.8248 13.0773L48.6248 13.2223L46.5248 9.27234L50.6548 9.12734ZM46.7123 5.72484C47.5849 6.22484 48.3773 6.80984 49.0948 7.45734L45.6248 7.57484L44.0199 4.53234C44.9575 4.83231 45.8601 5.2321 46.7123 5.72484ZM37.3223 4.10984C38.8007 3.83507 40.3141 3.80467 41.8023 4.01984L43.7248 7.62484L39.2998 7.77484L37.3223 4.10984ZM32.0323 6.28484C33.1357 5.53575 34.3403 4.94815 35.6098 4.53984L37.3748 7.84984L32.9498 8.02484L32.0323 6.28484ZM29.8573 8.11984C30.1157 7.8515 30.3823 7.5965 30.6573 7.35484L31.0498 8.07484L29.8573 8.11984ZM27.9223 10.6623C28.079 10.4007 28.2423 10.1457 28.4123 9.89734L31.9498 9.77484L34.0248 13.6748L29.5998 13.8248L27.9223 10.6623ZM26.0123 13.9698L26.9048 12.4248L27.6998 13.8998L26.0123 13.9698ZM24.6748 16.2873L24.9998 15.7198L28.5748 15.5998L30.6498 19.5248L26.2248 19.6748L24.5473 16.5123L24.6748 16.2873ZM23.2473 19.7948C23.3557 19.3648 23.4857 18.939 23.6373 18.5173L24.2998 19.7498L23.2473 19.7948ZM23.0248 25.4948C22.7991 24.1817 22.7654 22.8427 22.9248 21.5198L25.1998 21.4498L27.2748 25.3498L23.0248 25.4948ZM25.3373 31.1198C24.4994 29.9194 23.8549 28.595 23.4273 27.1948L28.1748 27.0248L30.2498 30.9498L25.3373 31.1198ZM29.7373 35.1523C28.6283 34.5084 27.613 33.7152 26.7198 32.7948L31.1498 32.6498L33.2348 36.5748L33.3748 36.6123C32.0988 36.3019 30.8739 35.8102 29.7373 35.1523ZM24.8548 36.2048C25.7598 37.0265 26.7615 37.7573 27.8598 38.3973L27.8623 38.3998C28.919 39.0115 30.0367 39.5109 31.1973 39.8898L26.2498 43.6723C25.7998 43.9973 25.1998 44.0473 24.7248 43.7723C24.4909 43.6335 24.3025 43.4295 24.1826 43.1853C24.0627 42.9411 24.0166 42.6673 24.0498 42.3973L24.8548 36.2048ZM38.2748 9.57484L40.3498 13.4748L35.9248 13.6248L33.8498 9.72484L38.2748 9.57484ZM41.2498 15.1748L43.3248 19.0748L38.8998 19.2248L36.8249 15.3248L41.2498 15.1748ZM35.5498 25.0498L33.4748 21.1498L37.8998 20.9998L39.9748 24.8998L35.5498 25.0498ZM34.8998 15.3998L36.9748 19.3248L32.5498 19.4748L30.4748 15.5498L34.8998 15.3998ZM31.5248 21.2248L33.5998 25.1248L29.1998 25.2748L27.0998 21.3748L31.5248 21.2248ZM30.0998 26.9748L34.5248 26.8248L36.5998 30.7248L32.1748 30.8998L30.0998 26.9748ZM38.5248 30.6748L36.4498 26.7748L40.8748 26.6248L42.9498 30.5248L38.5248 30.6748ZM41.8748 24.8248L39.7998 20.8998L44.2248 20.7498L46.2998 24.6748L41.8748 24.8248ZM45.2498 19.0248L43.1748 15.1248L47.5998 14.9748L49.6748 18.8498L45.2498 19.0248ZM42.2748 13.3998L40.1998 9.49984L44.6248 9.34984L46.6998 13.2498L42.2748 13.3998ZM8.63984 27.0248C10.4045 27.1758 12.0589 27.9463 13.3099 29.2001C14.5608 30.4538 15.3278 32.1098 15.4748 33.8748C14.0728 33.9254 12.6879 33.5535 11.4998 32.8073C10.639 32.2178 9.94908 31.4115 9.49985 30.4698C9.00698 29.4722 8.71478 28.3875 8.63984 27.2773V27.0248Z" fill="white"/>
<path d="M7.3899 27.025C5.61987 27.1692 3.95842 27.9368 2.7013 29.1912C1.44418 30.4455 0.672951 32.1053 0.524902 33.875C2.17188 33.8319 3.79404 34.283 5.1824 35.17C6.2274 35.88 7.0699 36.85 7.6224 37.9875C8.18161 39.1326 8.51679 40.3741 8.6099 41.645C8.6199 41.7467 8.62407 41.83 8.6224 41.895L8.6099 41.9V41.975C10.3799 41.8308 12.0414 41.0633 13.2985 39.8089C14.5556 38.5545 15.3269 36.8947 15.4749 35.125C13.8287 35.1703 12.2066 34.7219 10.8174 33.8375C9.77243 33.127 8.9313 32.1558 8.3774 31.02C7.81819 29.8749 7.48301 28.6335 7.3899 27.3625V27.025Z" fill="white"/>
<path d="M7.3599 41.9749C5.59522 41.824 3.94089 41.0534 2.68989 39.7997C1.4389 38.5459 0.671957 36.8899 0.524902 35.1249C1.92694 35.0744 3.31181 35.4463 4.4999 36.1924C5.3599 36.7824 6.0499 37.5874 6.4999 38.5299C6.99277 39.5275 7.28496 40.6122 7.3599 41.7224V41.9749Z" fill="white"/>
</svg>
