<svg width="19" height="16" viewBox="0 0 19 16" fill="none" xmlns="http://www.w3.org/2000/svg">
<path d="M13.0625 0H6.0625C5.23438 0 4.55937 0.68125 4.59062 1.50625C4.59687 1.67188 4.60313 1.8375 4.6125 2H1.3125C0.896875 2 0.5625 2.33437 0.5625 2.75C0.5625 5.64375 1.60938 7.65625 3.01562 9.02188C4.4 10.3688 6.0875 11.0469 7.33125 11.3906C8.0625 11.5938 8.5625 12.2031 8.5625 12.8156C8.5625 13.4688 8.03125 14 7.37813 14H6.5625C6.00938 14 5.5625 14.4469 5.5625 15C5.5625 15.5531 6.00938 16 6.5625 16H12.5625C13.1156 16 13.5625 15.5531 13.5625 15C13.5625 14.4469 13.1156 14 12.5625 14H11.7469C11.0938 14 10.5625 13.4688 10.5625 12.8156C10.5625 12.2031 11.0594 11.5906 11.7937 11.3906C13.0406 11.0469 14.7281 10.3688 16.1125 9.02188C17.5156 7.65625 18.5625 5.64375 18.5625 2.75C18.5625 2.33437 18.2281 2 17.8125 2H14.5125C14.5219 1.8375 14.5281 1.675 14.5344 1.50625C14.5656 0.68125 13.8906 0 13.0625 0ZM2.09063 3.5H4.72813C5.0125 6.31563 5.64062 8.19688 6.35 9.45625C5.57188 9.1125 4.7625 8.62813 4.0625 7.94688C3.0625 6.975 2.25 5.57188 2.09375 3.5H2.09063ZM15.0656 7.94688C14.3656 8.62813 13.5562 9.1125 12.7781 9.45625C13.4875 8.19688 14.1156 6.31563 14.4 3.5H17.0375C16.8781 5.57188 16.0656 6.975 15.0688 7.94688H15.0656Z" fill="#B23A32"/>
</svg>
