<svg width="26" height="21" viewBox="0 0 26 21" fill="none" xmlns="http://www.w3.org/2000/svg">
<path d="M6.01562 0.5C6.84443 0.5 7.63928 0.82924 8.22533 1.41529C8.81139 2.00134 9.14062 2.7962 9.14062 3.625C9.14062 4.4538 8.81139 5.24866 8.22533 5.83471C7.63928 6.42076 6.84443 6.75 6.01562 6.75C5.18682 6.75 4.39197 6.42076 3.80592 5.83471C3.21987 5.24866 2.89062 4.4538 2.89062 3.625C2.89062 2.7962 3.21987 2.00134 3.80592 1.41529C4.39197 0.82924 5.18682 0.5 6.01562 0.5ZM20.3906 0.5C21.2194 0.5 22.0143 0.82924 22.6003 1.41529C23.1864 2.00134 23.5156 2.7962 23.5156 3.625C23.5156 4.4538 23.1864 5.24866 22.6003 5.83471C22.0143 6.42076 21.2194 6.75 20.3906 6.75C19.5618 6.75 18.767 6.42076 18.1809 5.83471C17.5949 5.24866 17.2656 4.4538 17.2656 3.625C17.2656 2.7962 17.5949 2.00134 18.1809 1.41529C18.767 0.82924 19.5618 0.5 20.3906 0.5ZM0.390625 12.168C0.390625 9.86719 2.25781 8 4.55859 8H6.22656C6.84766 8 7.4375 8.13672 7.96875 8.37891C7.91797 8.66016 7.89453 8.95312 7.89453 9.25C7.89453 10.7422 8.55078 12.082 9.58594 13C9.57812 13 9.57031 13 9.55859 13H1.22266C0.765625 13 0.390625 12.625 0.390625 12.168ZM16.2227 13C16.2148 13 16.207 13 16.1953 13C17.2344 12.082 17.8867 10.7422 17.8867 9.25C17.8867 8.95312 17.8594 8.66406 17.8125 8.37891C18.3438 8.13281 18.9336 8 19.5547 8H21.2227C23.5234 8 25.3906 9.86719 25.3906 12.168C25.3906 12.6289 25.0156 13 24.5586 13H16.2227ZM9.14062 9.25C9.14062 8.25544 9.53571 7.30161 10.239 6.59835C10.9422 5.89509 11.8961 5.5 12.8906 5.5C13.8852 5.5 14.839 5.89509 15.5423 6.59835C16.2455 7.30161 16.6406 8.25544 16.6406 9.25C16.6406 10.2446 16.2455 11.1984 15.5423 11.9017C14.839 12.6049 13.8852 13 12.8906 13C11.8961 13 10.9422 12.6049 10.239 11.9017C9.53571 11.1984 9.14062 10.2446 9.14062 9.25ZM5.39062 19.457C5.39062 16.582 7.72266 14.25 10.5977 14.25H15.1836C18.0586 14.25 20.3906 16.582 20.3906 19.457C20.3906 20.0312 19.9258 20.5 19.3477 20.5H6.43359C5.85938 20.5 5.39062 20.0352 5.39062 19.457Z" fill="#BBB8B9"/>
</svg>
