<svg width="24" height="21" viewBox="0 0 24 21" fill="none" xmlns="http://www.w3.org/2000/svg">
<path d="M23.0078 10.4805C23.0078 11.1836 22.4219 11.7344 21.7578 11.7344H20.5078L20.5352 17.9922C20.5352 18.0977 20.5273 18.2031 20.5156 18.3086V18.9375C20.5156 19.8008 19.8164 20.5 18.9531 20.5H18.3281C18.2852 20.5 18.2422 20.5 18.1992 20.4961C18.1445 20.5 18.0898 20.5 18.0352 20.5H16.7656H15.8281C14.9648 20.5 14.2656 19.8008 14.2656 18.9375V18V15.5C14.2656 14.8086 13.707 14.25 13.0156 14.25H10.5156C9.82422 14.25 9.26562 14.8086 9.26562 15.5V18V18.9375C9.26562 19.8008 8.56641 20.5 7.70312 20.5H6.76562H5.51953C5.46094 20.5 5.40234 20.4961 5.34375 20.4922C5.29688 20.4961 5.25 20.5 5.20312 20.5H4.57812C3.71484 20.5 3.01562 19.8008 3.01562 18.9375V14.5625C3.01562 14.5273 3.01562 14.4883 3.01953 14.4531V11.7344H1.76562C1.0625 11.7344 0.515625 11.1875 0.515625 10.4805C0.515625 10.1289 0.632812 9.81641 0.90625 9.54297L10.9219 0.8125C11.1953 0.539062 11.5078 0.5 11.7812 0.5C12.0547 0.5 12.3672 0.578125 12.6016 0.773438L22.5781 9.54297C22.8906 9.81641 23.0469 10.1289 23.0078 10.4805Z" fill="#BBB8B9"/>
</svg>
