<svg width="24" height="21" viewBox="0 0 24 21" fill="none" xmlns="http://www.w3.org/2000/svg">
<path d="M16.5625 5.1875C16.5625 7.32031 13.707 11.1211 12.4531 12.6875C12.1523 13.0625 11.5938 13.0625 11.2969 12.6875C10.043 11.1211 7.1875 7.32031 7.1875 5.1875C7.1875 2.59766 9.28516 0.5 11.875 0.5C14.4648 0.5 16.5625 2.59766 16.5625 5.1875ZM16.875 8.32812C17.0117 8.05859 17.1367 7.78906 17.25 7.52344C17.2695 7.47656 17.2891 7.42578 17.3086 7.37891L21.8398 5.56641C22.457 5.32031 23.125 5.77344 23.125 6.4375V17.0156C23.125 17.3984 22.8906 17.7422 22.5352 17.8867L16.875 20.1484V8.32812ZM6 5.90234C6.09375 6.45312 6.28125 7.00781 6.5 7.52344C6.61328 7.78906 6.73828 8.05859 6.875 8.32812V18.1484L1.91016 20.1367C1.29297 20.3828 0.625 19.9297 0.625 19.2656V8.6875C0.625 8.30469 0.859375 7.96094 1.21484 7.81641L6.00391 5.90234H6ZM13.4297 13.4688C13.9727 12.7891 14.8242 11.6836 15.625 10.4609V20.1992L8.125 18.0547V10.4609C8.92578 11.6836 9.77734 12.7891 10.3203 13.4688C11.1211 14.4688 12.6289 14.4688 13.4297 13.4688ZM11.875 6.4375C12.2894 6.4375 12.6868 6.27288 12.9799 5.97985C13.2729 5.68683 13.4375 5.2894 13.4375 4.875C13.4375 4.4606 13.2729 4.06317 12.9799 3.77015C12.6868 3.47712 12.2894 3.3125 11.875 3.3125C11.4606 3.3125 11.0632 3.47712 10.7701 3.77015C10.4771 4.06317 10.3125 4.4606 10.3125 4.875C10.3125 5.2894 10.4771 5.68683 10.7701 5.97985C11.0632 6.27288 11.4606 6.4375 11.875 6.4375Z" fill="#BBB8B9"/>
</svg>
